<?xml version="1.0" standalone="no"?>
<!DOCTYPE svg PUBLIC "-//W3C//DTD SVG 20010904//EN"
 "http://www.w3.org/TR/2001/REC-SVG-20010904/DTD/svg10.dtd">
<svg version="1.0" xmlns="http://www.w3.org/2000/svg"
 width="225.000000pt" height="225.000000pt" viewBox="0 0 225.000000 225.000000"
 preserveAspectRatio="xMidYMid meet">

<g transform="translate(0.000000,225.000000) scale(0.100000,-0.100000)"
fill="#000000" stroke="none">
<path d="M967 1862 c-23 -26 -21 -49 6 -75 52 -48 31 -120 -27 -97 -37 14
-116 12 -146 -3 -31 -16 -36 -41 -15 -73 16 -25 71 -64 90 -64 6 0 -6 9 -25
21 -34 20 -69 56 -70 72 0 11 58 8 101 -5 44 -13 44 -13 24 -61 -8 -20 -14
-53 -14 -74 l1 -38 8 46 c4 25 17 64 29 86 26 52 102 118 149 131 22 6 28 10
16 11 -25 1 -50 44 -46 81 6 51 -48 79 -81 42z m93 -118 c0 -11 -22 -24 -41
-24 -14 0 -11 58 4 63 13 4 36 -20 37 -39z m-103 -67 c4 -4 0 -14 -8 -22 -13
-13 -23 -13 -89 4 -50 12 -68 20 -55 24 27 8 142 3 152 -6z"/>
<path d="M1217 1869 c-13 -7 -17 -21 -16 -47 3 -50 -18 -82 -56 -83 -25 -1
-24 -3 10 -8 50 -8 103 -40 131 -78 48 -64 58 -97 64 -198 l7 -100 1 92 2 93
40 20 c38 20 80 70 80 97 0 7 -10 17 -21 24 -12 6 -19 7 -15 1 3 -5 -11 -13
-32 -16 -20 -4 -50 -12 -65 -18 -23 -9 -31 -8 -45 5 -22 23 -11 29 66 37 66 7
66 7 15 9 -28 0 -63 -3 -78 -9 -18 -7 -31 -6 -46 3 -25 16 -17 62 17 95 29 27
31 53 6 75 -21 19 -39 21 -65 6z m21 -117 c-3 -29 -16 -36 -38 -22 -12 7 -12
13 -1 34 17 31 43 23 39 -12z m223 -119 c-14 -27 -53 -60 -81 -71 -23 -9 -27
-6 -43 31 -9 22 -14 38 -11 35 3 -4 17 0 32 8 15 8 46 14 70 14 38 0 42 -2 33
-17z"/>
<path d="M887 1603 c3 -7 6 -13 8 -13 2 0 5 6 8 13 3 8 -1 14 -8 14 -7 0 -11
-6 -8 -14z"/>
<path d="M1014 1495 c-7 -18 3 -35 21 -35 18 0 26 15 19 34 -8 20 -33 21 -40
1z m26 -5 c0 -5 -4 -10 -10 -10 -5 0 -10 5 -10 10 0 6 5 10 10 10 6 0 10 -4
10 -10z"/>
<path d="M1194 1496 c-8 -21 3 -36 27 -36 15 0 20 6 17 22 -4 27 -35 37 -44
14z m26 -6 c0 -5 -4 -10 -10 -10 -5 0 -10 5 -10 10 0 6 5 10 10 10 6 0 10 -4
10 -10z"/>
<path d="M891 1403 c0 -18 3 -52 9 -75 5 -24 12 -60 15 -81 7 -44 52 -99 96
-117 31 -13 31 -14 26 -68 -3 -30 -11 -58 -17 -62 -8 -5 -7 -9 3 -13 16 -6 27
29 27 87 l0 31 80 -1 c44 -1 80 2 80 6 0 4 14 13 30 20 42 17 88 73 95 115 14
90 15 111 5 88 l-9 -22 -58 26 c-49 22 -73 26 -148 27 -77 0 -98 -4 -148 -27
-65 -30 -63 -31 -77 49 -6 39 -8 43 -9 17z m376 -79 c60 -29 70 -49 49 -96
-22 -48 -37 -63 -86 -89 -120 -63 -296 5 -303 118 -2 32 2 39 32 57 88 52 213
56 308 10z"/>
<path d="M1090 1305 c0 -8 5 -15 10 -15 6 0 10 7 10 15 0 8 -4 15 -10 15 -5 0
-10 -7 -10 -15z"/>
<path d="M1140 1305 c0 -8 5 -15 10 -15 6 0 10 7 10 15 0 8 -4 15 -10 15 -5 0
-10 -7 -10 -15z"/>
<path d="M1174 1212 c-17 -21 -29 -26 -60 -24 -21 2 -44 8 -51 14 -8 6 -16 8
-19 5 -7 -7 50 -37 71 -37 25 0 73 28 85 50 15 28 -1 24 -26 -8z"/>
<path d="M1208 1041 c4 -45 2 -49 -40 -83 l-43 -36 -34 29 c-24 20 -43 27 -63
25 -16 -2 -31 -5 -33 -8 -2 -2 25 -14 61 -27 65 -23 83 -40 40 -37 -13 0 -22
4 -20 7 4 8 -86 35 -160 48 -33 6 -97 11 -143 11 -46 0 -83 4 -83 8 0 18 36
50 60 55 22 4 22 4 -5 6 -25 1 -34 -5 -50 -31 -10 -18 -23 -36 -28 -39 -6 -4
-5 -26 3 -58 12 -51 12 -51 -19 -77 -21 -17 -31 -35 -31 -53 0 -32 37 -71 67
-71 21 0 29 -22 45 -125 3 -17 12 -20 73 -23 l69 -3 -74 -32 c-90 -39 -109
-66 -86 -121 26 -62 86 -64 194 -6 67 37 77 39 111 30 47 -13 182 -13 217 1
25 9 39 5 110 -31 66 -33 91 -41 125 -38 37 3 46 8 62 36 25 42 16 77 -25 102
l-31 19 -33 -41 c-19 -22 -37 -51 -40 -64 -7 -27 -21 -30 -47 -10 -12 9 -14
16 -7 21 12 8 4 25 -13 25 -8 0 -8 -3 2 -9 9 -6 10 -11 2 -15 -6 -4 -22 1 -36
10 -21 14 -32 15 -69 5 -58 -14 -168 -14 -216 0 -34 10 -43 9 -94 -20 -32 -17
-61 -31 -65 -31 -4 0 -13 17 -20 37 -8 20 -24 47 -37 60 l-24 24 23 8 c86 33
104 34 216 17 85 -13 124 -15 168 -7 125 21 177 23 222 7 58 -21 66 -19 16 4
l-40 19 55 0 c30 1 60 5 66 9 6 4 17 37 24 75 10 52 16 67 30 67 9 0 29 9 44
21 36 29 35 70 -4 102 -30 25 -30 27 -19 78 7 31 8 54 2 58 -5 3 -18 21 -28
39 -16 27 -25 32 -55 31 -33 -2 -33 -2 -5 -6 26 -4 65 -35 65 -53 0 -4 -51
-10 -112 -12 -106 -5 -252 -33 -244 -47 2 -3 -6 -6 -17 -7 -12 0 -30 -4 -39
-8 -11 -5 -18 -4 -18 2 0 6 29 21 65 33 46 17 60 26 50 32 -9 4 -21 5 -28 2
-6 -4 -3 1 7 9 11 9 14 16 8 16 -7 0 -12 16 -12 39 0 22 -3 42 -7 44 -5 3 -6
-16 -5 -42z m-351 -87 c-3 -3 -12 -4 -19 -1 -8 3 -5 6 6 6 11 1 17 -2 13 -5z
m490 -10 c-3 -3 -12 -4 -19 -1 -8 3 -5 6 6 6 11 1 17 -2 13 -5z m123 -83 c0
-46 -14 -83 -34 -90 -12 -5 -60 -11 -108 -15 l-88 -6 0 50 c0 49 0 49 38 59
68 17 77 19 135 20 49 1 57 -1 57 -18z"/>
<path d="M758 1063 c12 -2 32 -2 45 0 12 2 2 4 -23 4 -25 0 -35 -2 -22 -4z"/>
<path d="M1448 1063 c12 -2 32 -2 45 0 12 2 2 4 -23 4 -25 0 -35 -2 -22 -4z"/>
<path d="M838 1053 c7 -3 16 -2 19 1 4 3 -2 6 -13 5 -11 0 -14 -3 -6 -6z"/>
<path d="M1398 1053 c7 -3 16 -2 19 1 4 3 -2 6 -13 5 -11 0 -14 -3 -6 -6z"/>
<path d="M1358 1043 c7 -3 16 -2 19 1 4 3 -2 6 -13 5 -11 0 -14 -3 -6 -6z"/>
<path d="M813 1023 c9 -2 23 -2 30 0 6 3 -1 5 -18 5 -16 0 -22 -2 -12 -5z"/>
<path d="M950 1020 c8 -5 20 -10 25 -10 6 0 3 5 -5 10 -8 5 -19 10 -25 10 -5
0 -3 -5 5 -10z"/>
<path d="M1408 1023 c6 -2 18 -2 25 0 6 3 1 5 -13 5 -14 0 -19 -2 -12 -5z"/>
<path d="M878 1013 c6 -2 18 -2 25 0 6 3 1 5 -13 5 -14 0 -19 -2 -12 -5z"/>
<path d="M1348 1013 c6 -2 18 -2 25 0 6 3 1 5 -13 5 -14 0 -19 -2 -12 -5z"/>
<path d="M788 1003 c12 -2 30 -2 40 0 9 3 -1 5 -23 4 -22 0 -30 -2 -17 -4z"/>
<path d="M1428 1003 c12 -2 30 -2 40 0 9 3 -1 5 -23 4 -22 0 -30 -2 -17 -4z"/>
<path d="M868 993 c6 -2 18 -2 25 0 6 3 1 5 -13 5 -14 0 -19 -2 -12 -5z"/>
<path d="M935 989 c-15 -7 -11 -8 15 -3 26 4 31 3 20 -5 -18 -13 -1 -14 18 -2
11 7 10 10 -3 15 -20 7 -25 7 -50 -5z"/>
<path d="M1262 991 c-11 -7 -10 -10 3 -15 25 -9 32 -7 15 5 -11 8 -6 9 20 5
26 -5 30 -4 15 3 -26 12 -37 13 -53 2z"/>
<path d="M1358 993 c6 -2 18 -2 25 0 6 3 1 5 -13 5 -14 0 -19 -2 -12 -5z"/>
</g>
</svg>
